<svg version="1.2" xmlns="http://www.w3.org/2000/svg" viewBox="0 0 64 64" width="64" height="64">
	<style>
		.s0 { fill: none;stroke: #ffffff;stroke-width: 2.5;stroke-linecap: round;stroke-linejoin: round }
		.s1 { fill: #ffffff }
	</style>
	<path class="s0" d="m10 28h16a5 5 0 0 0 0-10 8 8 0 0 0-15 2 4 4 0 0 0-1 8z"/>
	<path class="s0" d="m36 20h18a5 5 0 0 0 0-10 8 8 0 0 0-15 2 4 4 0 0 0-3 8z"/>
	<path class="s0" d="m14 40 2 6m8-6 2 6m8-6 2 6m8-6 2 6m-30-14h-2"/>
	<circle class="s0" cx="46" cy="40" r="6"/>
</svg>
