<svg version="1.2" xmlns="http://www.w3.org/2000/svg" viewBox="0 0 64 64" width="64" height="64">
	<style>
		.s0 { fill: none;stroke: #ffffff;stroke-width: 2.5;stroke-linejoin: round }
		.s1 { fill: #ffffff }
		.s2 { fill: none;stroke: #ffffff;stroke-width: 2.5;stroke-linecap: round;stroke-linejoin: round }
	</style>
	<path class="s0" d="m14 13h36c1.1 0 2 0.9 2 2v34c0 1.1-0.9 2-2 2h-36c-1.1 0-2-0.9-2-2v-34c0-1.1 0.9-2 2-2z"/>
	<path class="s1" d="m24 27c-1.66 0-3-1.34-3-3 0-1.66 1.34-3 3-3 1.66 0 3 1.34 3 3 0 1.66-1.34 3-3 3z"/>
	<path class="s2" d="m12 42l11-11 9 9 7-7 13 13"/>
	<path class="s1" d="m20 55h24v3h-24z"/>
</svg>
